Coordinates
version=1
nRows=19
nColumns=36
inDegrees=yes

Units are S.I. units (second, meters, Newtons, ...)
If the header above contains a line with 'inDegrees', this indicates whether rotational values are in degrees (yes) or radians (no).

endheader
time	pelvis_tilt	pelvis_list	pelvis_rotation	pelvis_tx	pelvis_ty	pelvis_tz	hip_flexion_r	hip_adduction_r	hip_rotation_r	knee_angle_r	knee_angle_r_beta	ankle_angle_r	subtalar_angle_r	mtp_angle_r	hip_flexion_l	hip_adduction_l	hip_rotation_l	knee_angle_l	knee_angle_l_beta	ankle_angle_l	subtalar_angle_l	mtp_angle_l	lumbar_extension	lumbar_bending	lumbar_rotation	arm_flex_r	arm_add_r	arm_rot_r	elbow_flex_r	pro_sup_r	arm_flex_l	arm_add_l	arm_rot_l	elbow_flex_l	pro_sup_l
      3.26666670	    -19.98163653	      2.49644193	      5.41711440	     -0.20229608	      1.16753154	     -0.09033244	     32.99149017	     -3.63325470	      1.71410527	     50.64579869	      0.88393594	     30.62342155	    -22.03373477	     -7.49999987	     33.24841746	      1.31497196	     -1.84612910	     47.84357663	      0.83502794	     38.02071068	     -3.99263924	     -7.49999987	    -34.22208952	     -4.02682205	     -1.61785618	     24.76598554	     -8.25456858	      3.07757999	     56.98850034	     90.54302710	     29.54829831	    -14.20808239	     10.87469413	     48.34340213	     88.50538259
      3.28333330	    -20.35320216	      2.60574427	      6.39866872	     -0.20795222	      1.16012512	     -0.09246106	     31.51672659	     -4.18477427	      1.71120306	     49.66410189	      0.86680210	     29.91981041	    -22.45023661	     -7.49999987	     31.51426276	      2.48090870	     -0.88466225	     45.79507147	      0.79927478	     38.19449784	     -4.18251538	     -7.49999987	    -30.30859563	     -4.01019159	     -1.91415139	     24.39536177	    -10.77136942	      4.20731367	     72.53315492	     89.04067005	     31.67511849	    -14.86077837	      7.41765587	     63.04266299	     87.72122066
      3.30000000	    -19.84839631	      2.33395381	      6.88186143	     -0.19378322	      1.17090560	     -0.08931289	     29.19226464	     -3.79414436	      1.67075893	     47.86984211	      0.83548636	     29.73758879	    -22.15355236	     -7.49999987	     29.12868807	      2.89322736	      0.83258053	     43.97099117	      0.76743857	     37.31781323	     -5.08938609	     -7.49999987	    -27.46324268	     -3.67238836	     -1.75054405	     25.39719148	    -11.93267559	      3.56228360	     85.36089942	     94.39845444	     34.09830267	    -17.08324175	      8.48267388	     74.09976117	     94.25659986
      3.31666670	    -19.79700466	      2.10962796	      7.07500430	     -0.17250028	      1.17602560	     -0.08825945	     27.16218860	     -3.38714415	      1.49104851	     46.24509369	      0.80712915	     27.80289116	    -22.19326221	     -7.49999987	     26.96429756	      2.98017044	      1.55977127	     41.73585197	      0.72842803	     36.45304983	     -5.25736302	     -7.49999987	    -23.96328670	     -3.70173295	     -1.25883519	     23.44472564	    -12.64839868	      2.48269901	     96.04748998	     96.56624469	     36.07188586	    -19.13735365	     10.20916508	     83.06817635	     94.59821403
      3.33333330	    -20.51248170	      2.15269018	      6.42494570	     -0.15867642	      1.17618799	     -0.09044927	     26.73606948	     -3.29153410	      1.59908070	     45.39801714	      0.79234487	     26.22949026	    -22.68082186	     -7.49999987	     25.51646679	      2.95843810	      1.34851392	     39.04729727	      0.68150390	     35.77060291	     -5.20517220	     -7.49999987	    -18.83859399	     -4.42209031	     -1.90546179	     22.22095885	    -13.62127779	      3.95102463	    104.43884817	     96.94584264	     36.60102491	    -23.38232712	     12.10980532	     88.44047663	     94.87201588
      3.35000000	    -20.03292953	      1.65287164	      6.22713194	     -0.11220885	      1.19895020	     -0.09986553	     22.00558306	     -2.99608648	      0.55523064	     40.38128971	      0.70478646	     22.02886092	    -21.67209922	     -7.49999987	     20.57824859	      2.27265680	      1.17298995	     33.79448395	      0.58982501	     33.35900145	     -4.19630076	     -7.49999987	    -15.06572661	     -4.33109242	     -1.58536346	     16.91116299	    -15.32791568	      1.30751043	    110.71388784	     98.29757408	     33.84068476	    -24.52104378	     10.59754386	     94.19894238	     95.37172422
      3.36666670	    -19.39314681	      1.13114414	      6.20803842	     -0.07377996	      1.21510845	     -0.10046983	     16.83152680	     -2.80239293	     -1.34210337	     35.61350295	      0.62157288	     17.67162035	    -20.59437807	     -7.49999987	     14.75901703	      1.21943150	     -0.25477126	     27.84952712	      0.48606594	     30.58821897	     -1.73861401	     -7.49999987	    -11.10479276	     -3.92818334	     -0.40310923	     12.28512478	    -16.54159704	     -0.07969466	    115.09117061	    101.92006937	     27.90207974	    -25.68248749	      9.05453150	    104.26846634	     97.82574563
      3.38333330	    -18.67749178	      0.14932025	      6.60113509	     -0.05450272	      1.24435062	     -0.09985576	     12.96674550	     -2.13038890	     -3.97640317	     31.71750886	      0.55357496	     11.77580185	    -18.24572822	     -7.49999987	      9.83849401	     -0.44504592	     -1.69820357	     22.66642620	      0.39560377	     24.85710304	     -0.14246678	     -7.49999987	     -8.52521841	     -3.34937034	      0.04519674	      8.79847880	    -16.85014767	     -1.17579486	    114.57040739	    100.86577486	     27.85115411	    -27.52716179	     11.60909043	    106.65128957	     97.25009450
      3.40000000	    -17.58855298	     -0.68308423	      7.06276429	     -0.00812088	      1.25476512	     -0.10955970	      8.55251594	     -1.88255920	     -5.97784914	     28.46007609	      0.49672203	      3.75862040	    -16.76018020	     -7.49999987	      4.37369608	     -1.55036785	     -2.97341922	     18.79607246	      0.32805335	     18.20894883	      2.99198766	     -7.49999987	     -5.71579530	     -2.37898713	      0.22226149	      2.11250439	    -17.19660315	     -3.73811678	    115.41807162	    101.11277436	     24.78623775	    -28.74731954	     10.25235767	    109.49288970	     97.53960798
      3.41666670	    -17.11613774	     -1.20031221	      7.20716028	      0.01528815	      1.28671246	     -0.11813936	      5.61519382	     -1.93841755	     -8.27181147	     24.64864876	      0.43020008	     -3.56296592	    -14.98649443	     -7.49999987	      1.26920464	     -2.17175354	     -3.47677702	     16.73280210	      0.29204249	     10.07775004	      3.20410195	     -7.49999987	     -3.65202842	     -1.68039971	      0.63845164	     -4.05346148	    -17.00103100	     -7.18018519	    114.08495229	    101.34556930	     20.09009824	    -28.69780360	      8.42106859	    110.56444103	     97.90073589
      3.43333330	    -15.67961309	     -1.26471885	      7.38880629	      0.03122555	      1.30695841	     -0.11815074	      3.84152986	     -2.25296286	     -9.56664207	     24.42309851	      0.42626348	     -9.44251049	    -13.91723401	     -7.49999987	     -0.08187663	     -2.73958682	     -2.96864366	     18.20071363	      0.31766238	      1.92873236	      2.12454182	     -7.49999987	     -3.48330090	     -1.49308679	      1.62331972	     -6.49967312	    -18.15337478	     -8.12866208	    109.84728749	     96.98304610	     16.22474723	    -29.36813725	      9.12492104	    112.57641206	     94.07436227
      3.45000000	    -14.33520597	     -1.60836866	      7.03839290	      0.04349714	      1.32702111	     -0.12428946	      4.17138377	     -2.32885395	     -9.04216969	     26.36887521	      0.46022369	    -11.80741945	    -14.90554201	     -7.49999987	     -0.32153913	     -3.57165119	     -2.43887680	     20.37545702	      0.35561881	     -5.57617053	      0.39371518	     -7.49999987	     -4.86518890	     -0.20220791	     -4.04651565	     -0.78364428	    -20.59516644	      0.16398655	    101.24374823	     97.13882408	      2.01735032	    -31.28763100	     -4.17001694	    119.03775199	     97.88583842
      3.46666670	    -11.77405979	     -1.62230332	      7.38280075	      0.06835229	      1.33928928	     -0.12855288	      4.98564065	     -2.76784942	     -8.44063584	     31.02751147	      0.54153223	     -9.60896204	    -17.73891943	     -7.49999987	      0.59873888	     -4.11997502	     -0.86892876	     27.02863084	      0.47173860	    -11.50960533	     -3.13765003	     -7.49999987	     -7.60440233	      0.24162928	     -3.65580555	     -3.14698628	    -22.10735738	     -1.24568313	     96.92338346	     94.78558828	     -1.28069973	    -32.47171700	     -5.06755763	    117.94082208	     95.74547401
      3.48333330	     -9.00066513	     -1.64726149	      7.79783157	      0.10844948	      1.36239946	     -0.13047112	      5.40792390	     -3.04638558	     -8.69906182	     36.18342787	      0.63151995	    -10.45548032	    -20.01462590	     -7.49999987	      0.23184541	     -4.84253403	      0.09699193	     32.64533854	      0.56976864	    -16.23291999	     -4.56009581	     -7.49999987	    -10.34653038	      0.95293752	     -3.47621588	     -5.91189560	    -21.99808271	     -2.88751988	     90.66627466	     93.15305125	     -5.46314883	    -32.65500028	     -7.03808054	    113.51508818	     94.16604850
      3.50000000	     -6.42191029	     -1.22420948	      7.63481220	      0.12059650	      1.37769734	     -0.12690715	      7.48795251	     -3.29078551	     -7.58440913	     41.80314367	      0.72960249	     -9.06331282	    -21.44631478	     -7.49999987	      2.48316176	     -5.07058814	      1.14695176	     41.18535956	      0.71882013	    -18.01357064	     -6.99242745	     -7.49999987	    -14.40844210	      0.79941225	     -3.42032170	     -5.98955053	    -20.65934501	     -4.11218226	     81.58406737	     90.85316447	     -8.89094340	    -33.17609918	     -9.73839994	    107.18779055	     91.74299789
      3.51666670	     -4.87222770	     -0.82665542	      6.98066018	      0.12695425	      1.37421461	     -0.12937139	     11.03852644	     -3.61675046	     -6.31569814	     46.94306633	      0.81931107	     -4.69636066	    -19.62893547	     -7.49999987	      6.22585971	     -5.01920847	      1.44949374	     49.98436758	      0.87239179	    -13.87766975	     -7.98197218	     -7.49999987	    -17.14483728	      0.29678029	     -9.54473862	      1.81509437	    -21.08397161	      5.75273560	     68.48558577	     93.99017762	    -19.52217472	    -31.60378436	    -22.27663856	    103.99238331	     92.95559053
      3.53333330	     -4.23304085	     -0.24929672	      6.77424974	      0.13457951	      1.38527729	     -0.12811362	     14.53503593	     -4.09026506	     -5.82781221	     48.68845646	      0.84977387	     -1.16651586	    -16.94777175	     -7.49999987	     10.24457678	     -5.26591467	      1.01661727	     56.07221865	      0.97864483	    -11.03369740	     -7.13264010	     -7.49999987	    -20.20176591	     -0.22438048	     -8.55422583	      2.98016920	    -20.01603182	      5.33004608	     58.61635192	     91.27440273	    -18.86671086	    -32.65366748	    -21.54974961	     95.81967215	     90.51023175
      3.55000000	     -3.87610876	      0.12937158	      6.76014255	      0.15247686	      1.38326974	     -0.13272433	     17.58403447	     -4.79993886	     -6.05721988	     48.64714592	      0.84905287	      6.74202563	    -13.30776748	     -7.49999987	     13.26428288	     -5.57429575	      0.47983571	     58.16534104	      1.01517671	     -6.37564067	     -5.57670020	     -7.49999987	    -22.33178484	     -0.69771365	     -8.47786831	      1.22245614	    -19.89744468	      5.49927757	     51.98337468	     89.62438339	    -20.54758277	    -33.09765177	    -21.44664224	     88.29316791	     88.91129304
      3.56666670	     -3.93716178	      0.21148820	      6.84753580	      0.18593670	      1.37869946	     -0.13324876	     18.69985969	     -4.90925452	     -6.44265163	     46.23634836	      0.80697651	      5.67871517	    -10.29591906	     -7.49999987	     14.94083256	     -6.04296394	      0.17241259	     58.55743488	      1.02202004	     -5.32084095	     -4.57072159	     -7.49999987	    -22.06422320	     -1.07757393	     -8.78480925	     -1.64517916	    -19.63168034	      7.90696237	     44.29323157	     88.18223607	    -24.13544522	    -33.13272238	    -19.74587337	     81.07999362	     87.60888813
